<?xml version="1.0" ?><svg data-name="Layer 1" id="Layer_1" viewBox="0 0 100 100" xmlns="http://www.w3.org/2000/svg"><title/><g><path d="M78.5,6.917h-57a13.01474,13.01474,0,0,0-13,13v59a15.01672,15.01672,0,0,0,15,15h53a15.01672,15.01672,0,0,0,15-15v-59A13.01474,13.01474,0,0,0,78.5,6.917Zm-57,6h57a7.00818,7.00818,0,0,1,7,7V70.97266a8.13837,8.13837,0,0,1-8.12939,8.12891H22.62939A8.13837,8.13837,0,0,1,14.5,70.97266V19.917A7.00818,7.00818,0,0,1,21.5,12.917Zm55,75h-53a9.01015,9.01015,0,0,1-9-9V78.54858a11.089,11.089,0,0,0,8.12939,3.553H77.37061A11.089,11.089,0,0,0,85.5,78.54858V78.917A9.01015,9.01015,0,0,1,76.5,87.917Z" fill="#fff"/><path d="M37.968,58.8877c4.032,0,6.944-1.47693,9.856-4.68927C46.64,52.5,45.328,50.83844,44.08,49.14c-1.696,1.88306-3.52,3.06458-5.92,3.06458a5.40651,5.40651,0,0,1-5.408-5.72308,5.41647,5.41647,0,0,1,5.344-5.72308c9.024,0,10.944,18.1662,24.096,18.1662,6.4,0,11.808-4.65234,11.808-12.40619,0-7.86462-5.44-12.44305-11.936-12.44305a12.16893,12.16893,0,0,0-9.888,4.57843c1.312,1.66156,2.528,3.39691,3.808,5.0954a7.68089,7.68089,0,0,1,5.824-3.02771A5.47331,5.47331,0,0,1,67.216,46.26c0,3.65533-2.304,5.98151-5.376,5.98151-8.736,0-11.072-18.16614-23.87195-18.16614C31.6,34.07538,26,38.58,26,46.37073,26,54.38306,31.472,58.8877,37.968,58.8877Z" fill="#fff"/></g></svg>